<?xml version="1.0" standalone="no"?><!DOCTYPE svg PUBLIC "-//W3C//DTD SVG 1.1//EN" "http://www.w3.org/Graphics/SVG/1.1/DTD/svg11.dtd"><svg t="1754356748027" class="icon" viewBox="0 0 1024 1024" version="1.1" xmlns="http://www.w3.org/2000/svg" p-id="8815" xmlns:xlink="http://www.w3.org/1999/xlink" width="200" height="200"><path d="M153.088 806.4V583.68c0-15.36 12.288-27.648 27.648-27.648 15.36 0 27.648 12.288 27.648 27.648v223.232c0 15.36-12.288 27.648-27.648 27.648-15.36-0.512-27.648-12.8-27.648-28.16zM678.4 806.4V542.72c0-15.36 12.288-27.648 27.648-27.648 15.36 0 27.648 12.288 27.648 27.648v264.192c0 15.36-12.288 27.648-27.648 27.648-15.36-0.512-27.648-12.8-27.648-28.16zM809.984 806.4v-87.552c0-15.36 12.288-27.648 27.648-27.648 15.36 0 27.648 12.288 27.648 27.648v87.552c0 15.36-12.288 27.648-27.648 27.648-15.36 0-27.648-12.288-27.648-27.648zM284.672 807.424V329.728c0-14.848 11.776-26.624 26.624-26.624h2.048c14.848 0 26.624 11.776 26.624 26.624v477.696c0 14.848-11.776 26.624-26.624 26.624h-2.048c-14.848 0-26.624-11.776-26.624-26.624zM547.328 806.4V204.288c0-15.36 12.288-27.648 27.648-27.648 15.36 0 27.648 12.288 27.648 27.648v602.112c0 15.36-12.288 27.648-27.648 27.648-15.36 0-27.648-12.288-27.648-27.648zM415.744 806.4V443.904c0-15.36 12.288-27.648 27.648-27.648 15.36 0 27.648 12.288 27.648 27.648v362.496c0 15.36-12.288 27.648-27.648 27.648-15.36 0-27.648-12.288-27.648-27.648z" fill="#ffffff" p-id="8816"></path></svg>