<?xml version="1.0" standalone="no"?><!DOCTYPE svg PUBLIC "-//W3C//DTD SVG 1.1//EN" "http://www.w3.org/Graphics/SVG/1.1/DTD/svg11.dtd"><svg t="1754356582427" class="icon" viewBox="0 0 1024 1024" version="1.1" xmlns="http://www.w3.org/2000/svg" p-id="5743" xmlns:xlink="http://www.w3.org/1999/xlink" width="200" height="200"><path d="M754.57024 287.72864c3.11808 1.75616 6.23616 3.65056 9.28256 5.75488l9.27232 6.29248 0.1792 11.1104c0.50176 32.22528-3.35872 59.50976-11.82208 80.49664-7.78752 19.2256-19.3024 33.5872-34.7392 42.24512-10.48576 37.50912-22.8096 72.23808-40.27392 101.4272-20.11136 33.57184-46.65344 59.4432-84.16256 73.30816-16.78336 6.17472-59.63264 9.02144-100.87936 8.40192-39.79776-0.60416-79.744-4.53632-95.5904-11.84256-34.11968-15.70304-58.0864-42.112-76.23168-75.008-15.57504-28.10368-26.6752-60.8-36.35712-95.3344-15.97952-8.32512-27.96544-22.61504-36.0192-41.97376-8.83712-21.12-12.86144-48.88064-12.32896-81.7152l0.14336-11.17184 9.2672-6.23616c2.30912-1.57696 4.68992-3.072 7.11168-4.4544-10.42432-129.11104-6.50752-176.8448 41.43104-231.41376 93.50656-76.5696 307.84512-73.86624 402.56512-4.46464 64.52736 60.91776 68.992 129.16736 49.152 234.57792z m-196.33664 373.38112l1.36192 29.58848-17.50528 28.90752 24.40704 160.45056 100.13696-215.15264 152.42752-5.20704c78.69952 74.46528 129.20832 249.88672 116.79744 364.30336H86.272c2.10944-100.47488 20.59264-272.1024 120.64768-359.36768l137.71776 1.29024 128.96768 212.7872 24.2432-159.09888-17.536-28.90752 1.35168-29.58848c33.3824-1.82784 43.19744-1.82784 76.5696-0.00512z m114.048-419.22048c-60.56448 11.8528-150.73792 22.20544-222.02368-17.87392-27.42784-15.43168-67.57888 16.18432-100.40832 12.93824a247.18336 247.18336 0 0 0-22.20544 65.60256l-3.65056 19.36896-19.50208-1.89952c-3.59936-0.33792-7.37792 0.13312-11.30496 1.42336-1.76128 0.53248-3.52256 1.28-5.27872 2.09408 0.50176 21.46304 3.51744 39.2704 9.07264 52.61312 4.87424 11.70944 11.70944 19.35872 20.57728 22.13376l11.38176 3.52256 3.11296 11.4432c9.5488 35.40992 20.23936 68.7872 35.2768 95.92832 13.94688 25.25696 31.8208 45.29664 56.53504 56.66304 10.35776 4.74112 43.45856 7.4496 78.06464 7.99744 36.7616 0.5376 73.46176-1.42848 85.57056-5.89312 27.22304-10.08128 46.85312-29.51168 62.09024-54.97344 16.37888-27.4176 28.02688-62.1568 38.2464-100.27008l2.91328-10.89536 10.83392-3.79392c8.56064-3.05152 15.23712-10.83392 19.97312-22.6816 5.34016-13.20448 8.24832-30.74048 8.76544-51.79904a37.65248 37.65248 0 0 0-4.77696-1.89952c-3.79392-1.28-7.51616-1.88928-11.03872-1.6896l-18.94912 1.21344-3.52256-18.67776a245.05344 245.05344 0 0 0-19.75296-60.5952z" fill="#ffffff" p-id="5744"></path></svg>